<svg width="65" height="26" viewBox="0 0 65 26" xmlns="http://www.w3.org/2000/svg"><title>D858CAC5-58A8-4973-831A-EC674FE90C90</title><g fill="#252938" fill-rule="evenodd"><path d="M15.256 3.461a5.863 5.863 0 0 1-1.345 1.992c-.522.514-1.038.866-1.562 1.035-.333.107-.829.19-1.508.246.028-1.428.404-2.668 1.132-3.703.722-1.035 1.938-1.746 3.616-2.131.029.126.064.23.077.316 0 .099.015.19.015.289 0 .59-.15 1.253-.425 1.956m4.09 18.55c-1.246 1.888-2.497 2.825-3.728 2.825-.489 0-1.155-.162-2.025-.466-.855-.316-1.592-.458-2.185-.458-.58 0-1.274.157-2.06.473-.791.332-1.43.494-1.91.494-1.493 0-2.92-1.255-4.357-3.733C1.67 18.668.95 16.26.95 13.894c0-2.202.552-3.991 1.634-5.386 1.09-1.387 2.449-2.075 4.118-2.075.707 0 1.549.14 2.56.43.998.288 1.664.435 1.995.435.425 0 1.12-.162 2.073-.493.956-.317 1.798-.486 2.505-.486 1.16 0 2.187.316 3.086.936.508.347 1.012.83 1.506 1.438-.75.633-1.3 1.197-1.649 1.703a5.1 5.1 0 0 0-.94 2.985c0 1.176.332 2.26.996 3.211.667.95 1.437 1.555 2.287 1.815-.361 1.141-.941 2.352-1.776 3.605M64.01 25.427l-13.137-1.802v-9.527H64.01v11.329zm0-12.539H50.873V3.25L64.01 1.448v11.44zM49.79 23.483l-9.877-1.359v-8.026h9.877v9.385zm0-10.595h-9.877v-8.14l9.877-1.357v9.497z"/></g></svg>