<svg width="205" height="91" viewBox="0 0 205 91" xmlns="http://www.w3.org/2000/svg"><title>D4015D8B-8142-4CC9-BD1B-5AE029E9772F</title><g fill="#FEFEFE" fill-rule="evenodd"><path d="M56.674 32.565h2.432v14.633c0 1.736.033 2.82.1 3.246.12.955.402 1.755.842 2.4.44.64 1.12 1.179 2.034 1.613.916.434 1.837.65 2.763.65.805 0 1.577-.17 2.316-.509a5.156 5.156 0 0 0 1.852-1.418c.497-.603.86-1.335 1.091-2.191.166-.616.249-1.88.249-3.79V32.564h2.432v14.633c0 2.166-.214 3.914-.637 5.249-.424 1.335-1.274 2.496-2.548 3.484-1.274.99-2.816 1.484-4.622 1.484-1.963 0-3.644-.467-5.046-1.401-1.4-.932-2.337-2.168-2.81-3.706-.299-.946-.448-2.65-.448-5.11V32.565zM91.574 32.565h2.648l8.062 18.728 8.195-18.728h2.647L102.54 56.806h-.528zM131.916 56.806h2.432V32.565h-2.432zM145.595 56.806h2.431V32.565h-2.431z"/><path d="M203.585 89.312V88.2H2.231V2.223H202.47v87.089h1.115V88.2v1.11h1.115V.002H0v90.422h204.7v-1.111z"/></g></svg>